<svg
  width="959"
  height="593"
  xmlns="http://www.w3.org/2000/svg"
>
  <path
    style="stroke:#ffffff;stroke-opacity:1;stroke-width:0.75;stroke-miterlimit:4;stroke-dasharray:none"
    id="HI"
    class="state"
    d="M 233.08751,519.30948 L 235.02744,515.75293 L 237.2907,515.42961 L 237.61402,516.23791 L 235.51242,519.30948 L 233.08751,519.30948 z M 243.27217,515.59127 L 249.4153,518.17784 L 251.51689,517.85452 L 253.1335,513.97465 L 252.48686,510.57977 L 248.28366,510.09479 L 244.24213,511.87306 L 243.27217,515.59127 z M 273.9878,525.61427 L 277.706,531.11074 L 280.13092,530.78742 L 281.26255,530.30244 L 282.7175,531.59573 L 286.43571,531.43407 L 287.40568,529.97912 L 284.49577,528.20085 L 282.55584,524.48263 L 280.45424,520.92609 L 274.63444,523.83599 L 273.9878,525.61427 z M 294.19545,534.50564 L 295.48874,532.5657 L 300.17691,533.53566 L 300.82356,533.05068 L 306.96668,533.69732 L 306.64336,534.99062 L 304.05678,536.44556 L 299.69193,536.12224 L 294.19545,534.50564 z M 299.53027,539.67879 L 301.47021,543.55866 L 304.54176,542.42703 L 304.86509,540.81041 L 303.24848,538.70882 L 299.53027,538.3855 L 299.53027,539.67879 z M 306.4817,538.54716 L 308.74496,535.63726 L 313.43313,538.06218 L 317.79798,539.19381 L 322.16284,541.94205 L 322.16284,543.88198 L 318.6063,545.66026 L 313.75645,546.63022 L 311.33154,545.17527 L 306.4817,538.54716 z M 323.13281,554.06663 L 324.74942,552.77335 L 328.14431,554.38997 L 335.74238,557.94651 L 339.13727,560.0481 L 340.75387,562.47302 L 342.69381,566.83787 L 346.73534,569.42445 L 346.41202,570.71775 L 342.53215,573.95097 L 338.32896,575.40592 L 336.87401,574.75928 L 333.80244,576.53754 L 331.37753,579.77077 L 329.11427,582.68067 L 327.33599,582.51901 L 323.77945,579.93243 L 323.45613,575.40592 L 324.10277,572.981 L 322.48616,567.32286 L 320.38456,565.54458 L 320.2229,562.958 L 322.48616,561.98804 L 324.58776,558.91648 L 325.07274,557.94651 L 323.45613,556.16823 L 323.13281,554.06663 z"
  />
  <path
    style="stroke:#ffffff;stroke-opacity:1;stroke-width:0.75;stroke-miterlimit:4;stroke-dasharray:none"
    id="AK"
    class="state"
    d="M 158.07671,453.67502 L 157.75339,539.03215 L 159.36999,540.00211 L 162.44156,540.16377 L 163.8965,539.03215 L 166.48308,539.03215 L 166.64475,541.94205 L 173.59618,548.73182 L 174.08117,551.3184 L 177.47605,549.37846 L 178.1227,549.2168 L 178.44602,546.14524 L 179.90096,544.52863 L 181.0326,544.36697 L 182.97253,542.91201 L 186.04409,545.01361 L 186.69074,547.92352 L 188.63067,549.05514 L 189.7623,551.48006 L 193.64218,553.25833 L 197.03706,559.2398 L 199.78529,563.11966 L 202.04855,565.86791 L 203.50351,569.58611 L 208.515,571.36439 L 213.68817,573.46598 L 214.65813,577.83084 L 215.14311,580.9024 L 214.17315,584.29729 L 212.39487,586.56054 L 210.77826,585.75224 L 209.32331,582.68067 L 206.57507,581.22573 L 204.7968,580.09409 L 203.98849,580.9024 L 205.44344,583.65065 L 205.6051,587.36885 L 204.47347,587.85383 L 202.53354,585.9139 L 200.43195,584.62061 L 200.91693,586.23722 L 202.21021,588.0155 L 201.40191,588.8238 C 201.40191,588.8238 200.59361,588.50048 200.10863,587.85383 C 199.62363,587.20719 198.00703,584.45895 198.00703,584.45895 L 197.03706,582.19569 C 197.03706,582.19569 196.71374,583.48898 196.06709,583.16565 C 195.42044,582.84233 194.7738,581.71071 194.7738,581.71071 L 196.55207,579.77077 L 195.09712,578.31582 L 195.09712,573.30432 L 194.28882,573.30432 L 193.48052,576.6992 L 192.34888,577.1842 L 191.37892,573.46598 L 190.73227,569.74777 L 189.92396,569.26279 L 190.24729,574.92094 L 190.24729,576.05256 L 188.79233,574.75928 L 185.23579,568.77781 L 183.13419,568.29283 L 182.48755,564.57462 L 180.87094,561.66472 L 179.25432,560.53308 L 179.25432,558.26983 L 181.35592,556.97654 L 180.87094,556.65322 L 178.28436,557.29986 L 174.88947,554.87495 L 172.30289,551.96504 L 167.45306,549.37846 L 163.41152,546.79188 L 164.70482,543.55866 L 164.70482,541.94205 L 162.92654,543.55866 L 160.01664,544.69029 L 156.29843,543.55866 L 150.64028,541.13375 L 145.14381,541.13375 L 144.49717,541.61873 L 138.03072,537.73885 L 135.92912,537.41553 L 133.18088,531.59573 L 129.62433,531.91905 L 126.06778,533.374 L 126.55277,537.90052 L 127.68439,534.99062 L 128.65437,535.31394 L 127.19941,539.67879 L 130.43263,536.93055 L 131.07928,538.54716 L 127.19941,542.91201 L 125.90612,542.58869 L 125.42114,540.64875 L 124.12785,539.84045 L 122.83456,540.97208 L 120.08632,539.19381 L 117.01475,541.29541 L 115.23649,543.397 L 111.8416,545.4986 L 107.15342,545.33693 L 106.66844,543.23534 L 110.38664,542.58869 L 110.38664,541.29541 L 108.12338,540.64875 L 109.09336,538.22384 L 111.35661,534.34397 L 111.35661,532.5657 L 111.51827,531.75739 L 115.88313,529.49413 L 116.85309,530.78742 L 119.60134,530.78742 L 118.30805,528.20085 L 114.58983,527.87752 L 109.57834,530.62576 L 107.15342,534.02064 L 105.37515,536.60723 L 104.24352,538.87049 L 100.04033,540.32543 L 96.96876,542.91201 L 96.645439,544.52863 L 98.908696,545.4986 L 99.717009,547.60018 L 96.96876,550.83341 L 90.502321,555.03661 L 82.742574,559.2398 L 80.640977,560.37142 L 75.306159,561.50306 L 69.971333,563.76631 L 71.749608,565.0596 L 70.294654,566.51455 L 69.809672,567.64618 L 67.061434,566.67621 L 63.828214,566.83787 L 63.019902,569.10113 L 62.049939,569.10113 L 62.37326,566.67621 L 58.816709,567.96951 L 55.90681,568.93947 L 52.511924,567.64618 L 49.602023,569.58611 L 46.368799,569.58611 L 44.267202,570.87941 L 42.65059,571.68771 L 40.548995,571.36439 L 37.962415,570.23276 L 35.699158,570.87941 L 34.729191,571.84937 L 33.112578,570.71775 L 33.112578,568.77781 L 36.184142,567.48452 L 42.488929,568.13117 L 46.853782,566.51455 L 48.955378,564.41296 L 51.86528,563.76631 L 53.643553,562.958 L 56.391794,563.11966 L 58.008406,564.41296 L 58.978369,564.08964 L 61.241626,561.3414 L 64.313196,560.37142 L 67.708076,559.72478 L 69.00137,559.40146 L 69.648012,559.88644 L 70.456324,559.88644 L 71.749608,556.16823 L 75.791141,554.71329 L 77.731077,550.99508 L 79.994336,546.46856 L 81.610951,545.01361 L 81.934272,542.42703 L 80.317657,543.72032 L 76.922764,544.36697 L 76.276122,541.94205 L 74.982838,541.61873 L 74.012865,542.58869 L 73.851205,545.4986 L 72.39625,545.33693 L 70.941306,539.51713 L 69.648012,540.81041 L 68.516388,540.32543 L 68.193068,538.3855 L 64.151535,538.54716 L 62.049939,539.67879 L 59.463361,539.35547 L 60.918305,537.90052 L 61.403286,535.31394 L 60.756645,533.374 L 62.211599,532.40404 L 63.504883,532.24238 L 62.858241,530.4641 L 62.858241,526.09925 L 61.888278,525.12928 L 61.079966,526.58423 L 54.936843,526.58423 L 53.481892,525.29094 L 52.835247,521.41108 L 50.733651,517.85452 L 50.733651,516.88456 L 52.835247,516.07625 L 52.996908,513.97465 L 54.128536,512.84303 L 53.320231,512.35805 L 52.026941,512.84303 L 50.895313,510.09479 L 51.86528,505.08328 L 56.391794,501.85007 L 58.978369,500.23345 L 60.918305,496.51525 L 63.666554,495.22195 L 66.253132,496.35359 L 66.576453,498.77851 L 69.00137,498.45517 L 72.23459,496.03026 L 73.851205,496.67691 L 74.821167,497.32355 L 76.437782,497.32355 L 78.701041,496.03026 L 79.509354,491.6654 C 79.509354,491.6654 79.832675,488.75551 80.479317,488.27052 C 81.125959,487.78554 81.44928,487.30056 81.44928,487.30056 L 80.317657,485.36062 L 77.731077,486.16893 L 74.497847,486.97723 L 72.557911,486.49225 L 69.00137,484.71397 L 63.989875,484.55231 L 60.433324,480.83411 L 60.918305,476.95424 L 61.564957,474.52932 L 59.463361,472.75105 L 57.523423,469.03283 L 58.008406,468.22453 L 64.798177,467.73955 L 66.899773,467.73955 L 67.869736,468.70951 L 68.516388,468.70951 L 68.354728,467.0929 L 72.23459,466.44626 L 74.821167,466.76958 L 76.276122,467.90121 L 74.821167,470.00281 L 74.336186,471.45775 L 77.084435,473.07437 L 82.095932,474.85264 L 83.874208,473.88268 L 81.610951,469.51783 L 80.640977,466.2846 L 81.610951,465.47629 L 78.21606,463.53636 L 77.731077,462.40472 L 78.21606,460.78812 L 77.407756,456.90825 L 74.497847,452.22007 L 72.072929,448.01688 L 74.982838,446.07694 L 78.21606,446.07694 L 79.994336,446.72359 L 84.197528,446.56193 L 87.915733,443.00539 L 89.047366,439.93382 L 92.765578,437.5089 L 94.382182,438.47887 L 97.130421,437.83222 L 100.84863,435.73062 L 101.98027,435.56896 L 102.95023,436.37728 L 107.47674,436.21561 L 110.22498,433.14405 L 111.35661,433.14405 L 114.91316,435.56896 L 116.85309,437.67056 L 116.36811,438.80219 L 117.01475,439.93382 L 118.63137,438.31721 L 122.51124,438.64053 L 122.83456,442.35873 L 124.7745,443.81369 L 131.88759,444.46033 L 138.19238,448.66352 L 139.64732,447.69356 L 144.82049,450.28014 L 146.92208,449.6335 L 148.86202,448.82518 L 153.71185,450.76512 L 158.07671,453.67502 z M 42.973913,482.61238 L 45.075509,487.9472 L 44.913847,488.91717 L 42.003945,488.59384 L 40.225672,484.55231 L 38.447399,483.09737 L 36.02248,483.09737 L 35.86082,480.51078 L 37.639093,478.08586 L 38.770722,480.51078 L 40.225672,481.96573 L 42.973913,482.61238 z M 40.387333,516.07625 L 44.105542,516.88456 L 47.823749,517.85452 L 48.632056,518.8245 L 47.015444,522.5427 L 43.94388,522.38104 L 40.548995,518.8245 L 40.387333,516.07625 z M 19.694697,502.01173 L 20.826327,504.5983 L 21.957955,506.21492 L 20.826327,507.02322 L 18.72473,503.95166 L 18.72473,502.01173 L 19.694697,502.01173 z M 5.9534943,575.0826 L 9.3483796,572.81934 L 12.743265,571.84937 L 15.329845,572.17269 L 15.814828,573.7893 L 17.754763,574.27429 L 19.694697,572.33436 L 19.371375,570.71775 L 22.119616,570.0711 L 25.029518,572.65768 L 23.897889,574.43595 L 19.533037,575.56758 L 16.784795,575.0826 L 13.066588,573.95097 L 8.7017347,575.40592 L 7.0851227,575.72924 L 5.9534943,575.0826 z M 54.936843,570.55609 L 56.553455,572.49602 L 58.655048,570.87941 L 57.2001,569.58611 L 54.936843,570.55609 z M 57.846745,573.62764 L 58.978369,571.36439 L 61.079966,571.68771 L 60.271663,573.62764 L 57.846745,573.62764 z M 81.44928,571.68771 L 82.904234,573.46598 L 83.874208,572.33436 L 83.065895,570.39442 L 81.44928,571.68771 z M 90.17899,559.2398 L 91.310623,565.0596 L 94.220522,565.86791 L 99.232017,562.958 L 103.59687,560.37142 L 101.98027,557.94651 L 102.46525,555.52159 L 100.36365,556.81488 L 97.453752,556.00657 L 99.070357,554.87495 L 101.01029,555.68325 L 104.89016,553.90497 L 105.37515,552.45003 L 102.95023,551.64172 L 103.75853,549.70178 L 101.01029,551.64172 L 96.322118,555.19827 L 91.472284,558.10817 L 90.17899,559.2398 z M 132.53423,539.35547 L 134.95915,537.90052 L 133.98918,536.12224 L 132.21091,537.09221 L 132.53423,539.35547 z"
  />
  <path
    style="stroke:#ffffff;stroke-opacity:1;fill-opacity:1;stroke-width:0.75;stroke-miterlimit:4;stroke-dasharray:none"
    id="FL"
    class="state"
    d="M 759.8167,439.1428 L 762.08236,446.4614 L 765.81206,456.20366 L 771.14685,465.57996 L 774.86504,471.88472 L 779.71486,477.38118 L 783.75637,481.09937 L 785.37297,484.00926 L 784.24135,485.30254 L 783.43305,486.59582 L 786.34293,494.03221 L 789.25282,496.94209 L 791.83939,502.27689 L 795.39592,508.09667 L 799.92241,516.34135 L 801.2157,523.93939 L 801.70068,535.90227 L 802.34732,537.68053 L 802.024,541.0754 L 799.59909,542.36869 L 799.92241,544.30861 L 799.27577,546.24854 L 799.59909,548.67344 L 800.08407,550.61337 L 797.33585,553.84658 L 794.2643,555.30152 L 790.38445,555.46318 L 788.9295,557.07979 L 786.5046,558.04975 L 785.21131,557.56477 L 784.07969,556.59481 L 783.75637,553.68492 L 782.94806,550.29005 L 779.55319,545.11691 L 775.99666,542.85367 L 772.11681,542.53035 L 771.30851,543.82363 L 768.23696,539.4588 L 767.59032,535.90227 L 765.00375,531.86076 L 763.22549,530.72913 L 761.60888,532.83072 L 759.83062,532.5074 L 757.72903,527.49592 L 754.81914,523.61607 L 751.90925,518.28128 L 749.32269,515.20973 L 745.76616,511.49154 L 747.86774,509.06663 L 751.10095,503.57017 L 750.93929,501.95357 L 746.4128,500.98361 L 744.79619,501.63025 L 745.11952,502.27689 L 747.70608,503.24685 L 746.25114,507.77335 L 745.44284,508.25833 L 743.66457,504.21682 L 742.37129,499.367 L 742.04797,496.61877 L 743.50291,491.93062 L 743.50291,482.39265 L 740.43136,478.67446 L 739.13808,475.60291 L 733.96494,474.30963 L 732.02502,473.66299 L 730.40841,471.07642 L 727.01354,469.45981 L 725.88192,466.06494 L 723.13369,465.09498 L 720.70878,461.37679 L 716.50561,459.92185 L 713.59572,458.4669 L 711.00916,458.4669 L 706.96764,459.27521 L 706.80598,461.21513 L 707.61429,462.18509 L 707.1293,463.31672 L 704.05776,463.15506 L 700.33957,466.71159 L 696.78303,468.65151 L 692.90318,468.65151 L 689.66997,469.9448 L 689.34665,467.19657 L 687.73005,465.25664 L 684.82016,464.12502 L 683.20356,462.67007 L 675.12053,458.79022 L 667.52249,457.01196 L 663.15766,457.6586 L 657.17622,458.14358 L 651.19478,460.24517 L 647.71554,460.85813 L 647.47762,452.80838 L 644.89105,450.86846 L 643.11278,449.09019 L 643.4361,446.01863 L 653.62072,444.72535 L 679.16312,441.81546 L 685.95287,441.16882 L 691.38887,441.44909 L 693.97544,445.32895 L 695.43038,446.78389 L 703.52854,447.29911 L 714.34829,446.65247 L 735.86068,445.35918 L 741.3064,444.68481 L 746.41398,444.88932 L 746.84081,447.79921 L 749.07381,448.60751 L 749.30875,443.97751 L 747.78053,439.80456 L 749.08893,438.36473 L 754.64356,438.81948 L 759.8167,439.1428 z M 772.36211,571.54788 L 774.78703,570.90124 L 776.08031,570.65875 L 777.53527,568.31466 L 779.87935,566.69805 L 781.17264,567.18304 L 782.87008,567.50636 L 783.27423,568.55715 L 779.79853,569.76961 L 775.59533,571.22456 L 773.25125,572.43702 L 772.36211,571.54788 z M 785.86081,566.53639 L 787.07327,567.58719 L 789.82151,565.4856 L 795.15632,561.28241 L 798.87452,557.40254 L 801.38027,550.77444 L 802.35024,549.077 L 802.5119,545.68212 L 801.78442,546.1671 L 800.81446,548.99617 L 799.3595,553.6035 L 796.12628,558.8575 L 791.76144,563.06068 L 788.36656,565.00061 L 785.86081,566.53639 z"
      />
  <path
    style="fill-opacity:1;stroke:#ffffff;stroke-opacity:1;stroke-width:0.75;stroke-miterlimit:4;stroke-dasharray:none"
    id="NH"
    class="state"
    d="M 880.79902,142.42476 L 881.66802,141.34826 L 882.75824,138.05724 L 880.21516,137.14377 L 879.73017,134.07221 L 875.85032,132.94059 L 875.527,130.19235 L 868.25225,106.75153 L 863.65083,92.208542 L 862.75375,92.203482 L 862.10711,93.820087 L 861.46047,93.335106 L 860.4905,92.365143 L 859.03556,94.305068 L 858.98709,99.337122 L 859.29874,105.00434 L 861.23866,107.75258 L 861.23866,111.7941 L 857.52046,116.85688 L 854.93389,117.98852 L 854.93389,119.12014 L 856.06552,120.89841 L 856.06552,129.46643 L 855.25721,138.6811 L 855.09555,143.53092 L 856.06552,144.82422 L 855.90386,149.35071 L 855.41887,151.12899 L 856.38768,151.83821 L 873.17535,147.41366 L 875.35022,146.81121 L 877.19379,144.03788 L 880.79902,142.42476 z"
      />
  <path
    d="M 211,493 V 548 L 247,593 M 0,425 H 144 L 211,493 H 297 L 350,547 V 593"
    stroke="#a9a9a9"
    fill="none"
    stroke-width="2"
    id="path57"
  />
 
</svg>